<svg preserveAspectRatio="none" width="100%" height="100%" overflow="visible" style="display: block;" viewBox="0 0 31 27" fill="none" xmlns="http://www.w3.org/2000/svg">
<g id="Group 8">
<path id="Vector" d="M0 1.90141C0 0.851289 0.85129 0 1.90141 0H29.0986C30.1487 0 31 0.851289 31 1.90141C31 2.95153 30.1487 3.80282 29.0986 3.80282H1.90141C0.851291 3.80282 0 2.95153 0 1.90141Z" fill="var(--fill-0, white)"/>
<path id="Vector_2" d="M0.09375 13.5475C0.09375 12.4974 0.94504 11.6461 1.99516 11.6461H29.0986C30.1487 11.6461 31 12.4974 31 13.5475C31 14.5976 30.1487 15.4489 29.0986 15.4489H1.99516C0.94504 15.4489 0.09375 14.5976 0.09375 13.5475Z" fill="var(--fill-0, white)"/>
<path id="Vector_3" d="M0.09375 25.0985C0.09375 24.0484 0.94504 23.1971 1.99516 23.1971H29.0986C30.1487 23.1971 31 24.0484 31 25.0985C31 26.1487 30.1487 27 29.0986 27H1.99516C0.94504 27 0.09375 26.1487 0.09375 25.0985Z" fill="var(--fill-0, white)"/>
</g>
</svg>
